<svg width="168" height="27" viewBox="0 0 168 27" fill="none" xmlns="http://www.w3.org/2000/svg">
<path d="M12.7933 3.85934C13.0931 2.93906 14.3951 2.93906 14.6949 3.85934L16.446 9.23373C16.5801 9.64536 16.9639 9.92394 17.3968 9.92394H23.0576C24.0269 9.92394 24.4293 11.165 23.6443 11.7337L19.0694 15.0484C18.7179 15.303 18.5709 15.7553 18.7053 16.168L20.4539 21.5346C20.7539 22.4554 19.7006 23.2224 18.9164 22.6542L14.3308 19.3318C13.9808 19.0782 13.5074 19.0782 13.1574 19.3318L8.57183 22.6542C7.78757 23.2224 6.73428 22.4554 7.0343 21.5346L8.78288 16.168C8.91733 15.7553 8.77025 15.303 8.41879 15.0484L3.84392 11.7337C3.05891 11.165 3.46124 9.92394 4.43064 9.92394H10.0914C10.5243 9.92394 10.9081 9.64536 11.0422 9.23373L12.7933 3.85934Z" fill="#070707"/>
<path d="M47.8905 3.85934C48.1903 2.93906 49.4922 2.93906 49.7921 3.85934L51.5432 9.23373C51.6773 9.64536 52.061 9.92394 52.494 9.92394H58.1547C59.1241 9.92394 59.5264 11.165 58.7414 11.7337L54.1666 15.0484C53.8151 15.303 53.668 15.7553 53.8025 16.168L55.5511 21.5346C55.8511 22.4554 54.7978 23.2224 54.0135 22.6542L49.428 19.3318C49.0779 19.0782 48.6046 19.0782 48.2545 19.3318L43.669 22.6542C42.8847 23.2224 41.8314 22.4554 42.1315 21.5346L43.88 16.168C44.0145 15.7553 43.8674 15.303 43.516 15.0484L38.9411 11.7337C38.1561 11.165 38.5584 9.92394 39.5278 9.92394H45.1886C45.6215 9.92394 46.0052 9.64536 46.1394 9.23373L47.8905 3.85934Z" fill="#070707"/>
<path d="M82.9876 3.85934C83.2875 2.93906 84.5894 2.93906 84.8892 3.85934L86.6403 9.23373C86.7744 9.64536 87.1582 9.92394 87.5911 9.92394H93.2519C94.2213 9.92394 94.6236 11.165 93.8386 11.7337L89.2637 15.0484C88.9123 15.303 88.7652 15.7553 88.8996 16.168L90.6482 21.5346C90.9482 22.4554 89.895 23.2224 89.1107 22.6542L84.5251 19.3318C84.1751 19.0782 83.7017 19.0782 83.3517 19.3318L78.7662 22.6542C77.9819 23.2224 76.9286 22.4554 77.2286 21.5346L78.9772 16.168C79.1117 15.7553 78.9646 15.303 78.6131 15.0484L74.0383 11.7337C73.2532 11.165 73.6556 9.92394 74.625 9.92394H80.2857C80.7187 9.92394 81.1024 9.64536 81.2365 9.23373L82.9876 3.85934Z" fill="#070707"/>
<path d="M118.085 3.85934C118.385 2.93906 119.687 2.93906 119.986 3.85934L121.737 9.23373C121.872 9.64536 122.255 9.92394 122.688 9.92394H128.349C129.318 9.92394 129.721 11.165 128.936 11.7337L124.361 15.0484C124.009 15.303 123.862 15.7553 123.997 16.168L125.745 21.5346C126.045 22.4554 124.992 23.2224 124.208 22.6542L119.622 19.3318C119.272 19.0782 118.799 19.0782 118.449 19.3318L113.863 22.6542C113.079 23.2224 112.026 22.4554 112.326 21.5346L114.074 16.168C114.209 15.7553 114.062 15.303 113.71 15.0484L109.135 11.7337C108.35 11.165 108.753 9.92394 109.722 9.92394H115.383C115.816 9.92394 116.2 9.64536 116.334 9.23373L118.085 3.85934Z" fill="#070707"/>
<path d="M153.182 3.85934C153.482 2.93906 154.784 2.93906 155.084 3.85934L156.835 9.23373C156.969 9.64536 157.353 9.92394 157.785 9.92394H163.446C164.416 9.92394 164.818 11.165 164.033 11.7337L159.458 15.0484C159.107 15.303 158.96 15.7553 159.094 16.168L160.843 21.5346C161.143 22.4554 160.089 23.2224 159.305 22.6542L154.719 19.3318C154.369 19.0782 153.896 19.0782 153.546 19.3318L148.96 22.6542C148.176 23.2224 147.123 22.4554 147.423 21.5346L149.172 16.168C149.306 15.7553 149.159 15.303 148.807 15.0484L144.233 11.7337C143.448 11.165 143.85 9.92394 144.819 9.92394H150.48C150.913 9.92394 151.297 9.64536 151.431 9.23373L153.182 3.85934Z" fill="#E5E5E5"/>
</svg>
